# xmcd
#
# Track frame offsets: 
#        150
#        79502
#        111730
#        168545
#
# Disc length: 3070 seconds
#
# Revision: 0
# Processed by: cddbd v1.5.2PL0 Copyright (c) Steve Scherf et al.
# Submitted via: ExactAudioCopy v0.95b4
#
DISCID=2e0bfc04
DTITLE=Eric Clapton - 1989-02-03 - Beetle Clasher - CD2
DYEAR=1989
DGENRE=Blues
TTITLE0=Same Old Blues
TTITLE1=Tearing Us Apart
TTITLE2=Cocaine
TTITLE3=Layla
EXTD=
EXTT0=
EXTT1=
EXTT2=
EXTT3=
PLAYORDER=
